<svg width="554" height="1174" viewBox="0 0 554 1174" fill="none" xmlns="http://www.w3.org/2000/svg">
<g clip-path="url(#clip0)">
<path d="M327.863 539.479L328.592 539.432C328.811 539.418 350.776 537.798 368.781 517.964C369.216 516.784 371.999 510.224 380.04 510.224C381.27 510.224 382.581 510.38 383.936 510.686C384.491 510.811 385.089 510.875 385.714 510.875C396.404 510.876 413.081 492.94 413.248 492.758L414.596 491.297V544.082L327.863 551.927V539.479ZM413.039 495.235C408.758 499.603 395.351 512.444 385.713 512.442C384.974 512.442 384.261 512.366 383.595 512.215C382.351 511.934 381.155 511.792 380.04 511.792C372.418 511.792 370.293 518.33 370.206 518.607L370.155 518.774L370.037 518.903C353.438 537.27 333.456 540.457 329.418 540.923V550.211L413.038 542.648V495.235H413.039Z" fill="#E8E8E8"/>
<path d="M327.405 552.431L327.406 539.047L328.563 538.972C328.782 538.958 350.513 537.358 368.386 517.719C368.964 516.202 371.9 509.765 380.041 509.765C381.308 509.765 382.652 509.924 384.039 510.237C384.561 510.356 385.125 510.415 385.715 510.415C396.234 510.416 412.749 492.626 412.913 492.446L415.055 490.126V544.504L327.405 552.431ZM328.321 539.91L328.32 551.423L414.138 543.661V492.47L413.582 493.072C413.414 493.255 396.628 511.336 385.714 511.336C385.714 511.336 385.714 511.336 385.713 511.336C385.056 511.336 384.425 511.269 383.836 511.137C382.516 510.837 381.239 510.686 380.04 510.686C372.341 510.686 369.668 516.883 369.211 518.125L369.12 518.275C350.939 538.301 328.841 539.878 328.62 539.892L328.321 539.91ZM328.962 550.715V540.513L329.367 540.466C333.202 540.022 353.171 536.883 369.7 518.593L369.769 518.471C369.861 518.176 372.1 511.331 380.04 511.331C381.187 511.331 382.418 511.477 383.696 511.766C384.33 511.909 385.009 511.981 385.714 511.981C395.243 511.981 408.789 498.915 412.715 494.911L413.498 494.112V543.07L328.962 550.715ZM329.877 541.332V549.708L412.582 542.228V496.349C407.029 501.902 394.869 512.904 385.714 512.904C384.942 512.904 384.195 512.823 383.496 512.666C382.283 512.391 381.12 512.253 380.04 512.253C372.762 512.253 370.726 518.481 370.643 518.746L370.494 519.085L370.377 519.215C354.142 537.177 334.607 540.721 329.877 541.332Z" fill="#E8E8E8"/>
<path d="M414.425 703.972H412.138V608.753H410.18L410.161 607.621C409.998 598.179 401.056 598.017 400.676 598.015L399.539 598.009L399.536 596.399H342.235V598.091L341.063 598.062C340.717 598.023 332.455 598.012 331.887 607.67L331.824 608.753H330.319V703.973H328.032V606.45H329.699C330.704 597.867 337.24 596.173 339.949 595.84V594.096H401.824V595.806C404.628 596.171 411.673 597.936 412.392 606.449H414.426V703.972H414.425Z" fill="#E8E8E8"/>
<path d="M414.426 1174H412.139V795.263H410.181L410.162 794.131C409.999 784.689 401.057 784.527 400.677 784.525L399.54 784.519L399.537 782.909H342.236V784.602L341.064 784.573C340.718 784.539 332.456 784.522 331.888 794.18L331.824 795.263H330.319V1174H328.032V792.96H329.699C330.704 784.378 337.24 782.684 339.949 782.351V780.606H401.824V782.316C404.628 782.681 411.673 784.446 412.392 792.959H414.426V1174Z" fill="#E8E8E8"/>
<path d="M182.917 1113H109.757V1111.17C105.303 1110.77 99.0083 1108.03 97.9965 1099.79H96.0947V822.017H97.9965C99.0128 813.738 105.365 811.013 109.757 810.634V808.808H182.917V810.619C185.99 810.967 194.249 812.762 195.041 822.018H197.365V1099.8H195.041C194.249 1109.05 185.99 1110.85 182.917 1111.19V1113ZM112.045 1110.7H180.631V1108.97L181.774 1108.97C182.215 1108.97 192.624 1108.81 192.812 1098.62L192.833 1097.49H195.079V824.32H192.833L192.812 823.19C192.623 812.966 182.217 812.839 181.774 812.839L180.631 812.838V811.11H112.045V812.916L110.875 812.89C109.814 812.89 100.816 813.181 100.181 823.241L100.112 824.32H98.3826V1097.49H100.112L100.181 1098.57C100.816 1108.63 109.818 1108.92 110.843 1108.92H111.986L112.045 1110.7Z" fill="#E8E8E8"/>
<path d="M197.365 489.812L96.0947 489.804V260.544H97.9883C98.9781 251.663 105.352 248.744 109.757 248.338L109.751 247.648L109.601 244.636L111.706 246.78C120.885 256.13 133.131 261.278 146.188 261.278C159.242 261.278 171.916 255.973 180.959 246.724L182.917 244.721V248.322C185.998 248.692 194.291 250.614 195.046 260.543H197.365V489.812ZM98.3826 487.499L195.079 487.508V262.847H192.832L192.813 261.716C192.623 250.675 182.217 250.537 181.775 250.537L180.632 250.536V250.236C171.336 258.748 158.936 263.582 146.19 263.582C133.428 263.582 121.406 258.885 112.046 250.299V250.62L110.874 250.591H110.873C109.814 250.591 100.821 250.907 100.181 261.764L100.118 262.847H98.3835V487.499H98.3826Z" fill="#E8E8E8"/>
<path d="M182.917 739.161H109.757V737.328C105.303 736.927 99.0083 734.188 97.9965 725.951H96.0947V604.742H97.9965C99.0128 596.463 105.365 593.738 109.757 593.359V591.534H182.917V593.344C185.99 593.692 194.249 595.487 195.041 604.743H197.365V725.952H195.041C194.249 735.209 185.99 737.004 182.917 737.351V739.161ZM112.045 736.858H180.631V735.131L181.774 735.13C182.215 735.128 192.624 734.963 192.812 724.779L192.833 723.648H195.079V607.045H192.833L192.812 605.915C192.623 595.691 182.217 595.564 181.774 595.564L180.631 595.563V593.836H112.045V595.641L110.875 595.614C110.875 595.614 110.875 595.614 110.874 595.614C109.814 595.614 100.816 595.906 100.181 605.966L100.112 607.045H98.3826V723.648H100.112L100.181 724.727C100.816 734.789 109.818 735.08 110.843 735.08H111.986L112.045 736.858Z" fill="#E8E8E8"/>
<path d="M494.837 703.971H492.55V602.81H494.324C495.381 593.462 502.47 591.753 505.293 591.446V589.601H557.591V591.904H507.579V592.531H506.436L506.411 593.683V593.68V593.683L506.41 593.598L506.408 593.683L506.41 593.592L506.408 593.683L506.41 593.592L506.381 592.531V593.682V593.669V593.682L506.376 592.531L506.376 593.682V593.679V593.682L506.35 592.531L506.357 593.683C505.432 593.688 497.302 594.021 496.539 603.664H496.538C496.537 603.682 496.536 603.7 496.535 603.718L496.527 603.822C496.525 603.854 496.523 603.884 496.518 603.915L496.522 603.915L496.518 603.915C496.516 603.929 496.514 603.942 496.512 603.956L496.519 603.957L496.512 603.956C496.51 603.968 496.508 603.979 496.505 603.99L496.517 603.991L496.451 605.073L494.838 605.114V703.971H494.837Z" fill="#E8E8E8"/>
<path d="M146.225 208.029C160.044 208.029 171.246 196.747 171.246 182.829C171.246 168.912 160.044 157.629 146.225 157.629C132.407 157.629 121.205 168.912 121.205 182.829C121.205 196.747 132.407 208.029 146.225 208.029Z" fill="#E8E8E8"/>
<path d="M541.055 732.035C543.626 732.035 545.717 729.929 545.717 727.34C545.717 724.75 543.626 722.644 541.055 722.644C538.485 722.644 536.394 724.75 536.394 727.34C536.394 729.929 538.486 732.035 541.055 732.035Z" fill="#E8E8E8"/>
<path d="M525.362 741.589C528.627 741.589 530.389 734.247 530.389 727.34C530.389 720.432 528.627 713.09 525.362 713.09C522.097 713.09 520.335 720.432 520.335 727.34C520.335 734.248 522.096 741.589 525.362 741.589Z" fill="#E8E8E8"/>
<path d="M509.82 732.035C512.391 732.035 514.482 729.929 514.482 727.34C514.482 724.75 512.391 722.644 509.82 722.644C507.249 722.644 505.158 724.75 505.158 727.34C505.158 729.929 507.249 732.035 509.82 732.035Z" fill="#E8E8E8"/>
<path d="M494.024 741.589C497.288 741.589 499.05 734.247 499.05 727.34C499.05 720.432 497.288 713.09 494.024 713.09C490.759 713.09 488.997 720.432 488.997 727.34C488.997 734.248 490.759 741.589 494.024 741.589Z" fill="#E8E8E8"/>
<path d="M478.481 732.124C481.053 732.124 483.144 730.017 483.144 727.429C483.144 724.839 481.053 722.733 478.481 722.733C475.911 722.733 473.82 724.839 473.82 727.429C473.82 730.017 475.911 732.124 478.481 732.124Z" fill="#E8E8E8"/>
<path d="M431.409 732.035C433.98 732.035 436.071 729.929 436.071 727.34C436.071 724.75 433.98 722.644 431.409 722.644C428.838 722.644 426.747 724.75 426.747 727.34C426.747 729.929 428.838 732.035 431.409 732.035Z" fill="#E8E8E8"/>
<path d="M415.716 741.589C418.981 741.589 420.743 734.247 420.743 727.34C420.743 720.432 418.981 713.09 415.716 713.09C412.451 713.09 410.689 720.432 410.689 727.34C410.689 734.248 412.45 741.589 415.716 741.589Z" fill="#E8E8E8"/>
<path d="M400.173 732.035C402.744 732.035 404.835 729.929 404.835 727.34C404.835 724.75 402.744 722.644 400.173 722.644C397.601 722.644 395.51 724.75 395.51 727.34C395.511 729.929 397.602 732.035 400.173 732.035Z" fill="#E8E8E8"/>
<path d="M384.401 741.589C387.665 741.589 389.427 734.247 389.427 727.34C389.427 720.432 387.665 713.09 384.401 713.09C381.136 713.09 379.374 720.432 379.374 727.34C379.374 734.248 381.136 741.589 384.401 741.589Z" fill="#E8E8E8"/>
<path d="M368.702 732.035C371.272 732.035 373.363 729.929 373.363 727.34C373.363 724.751 371.272 722.645 368.702 722.645C366.13 722.645 364.039 724.751 364.039 727.34C364.039 729.929 366.13 732.035 368.702 732.035Z" fill="#E8E8E8"/>
<path d="M352.903 741.589C356.168 741.589 357.93 734.247 357.93 727.34C357.93 720.432 356.168 713.09 352.903 713.09C349.638 713.09 347.876 720.432 347.876 727.34C347.876 734.248 349.638 741.589 352.903 741.589Z" fill="#E8E8E8"/>
<path d="M337.362 732.035C339.933 732.035 342.024 729.929 342.024 727.34C342.024 724.751 339.933 722.645 337.362 722.645C334.792 722.645 332.701 724.751 332.701 727.34C332.701 729.929 334.793 732.035 337.362 732.035Z" fill="#E8E8E8"/>
<path d="M321.668 741.589C324.933 741.589 326.695 734.247 326.695 727.34C326.695 720.432 324.933 713.09 321.668 713.09C318.403 713.09 316.642 720.432 316.642 727.34C316.642 734.248 318.403 741.589 321.668 741.589Z" fill="#E8E8E8"/>
<path d="M306.268 732.035C308.84 732.035 310.931 729.929 310.931 727.34C310.931 724.75 308.84 722.644 306.268 722.644C303.698 722.644 301.607 724.75 301.607 727.34C301.607 729.929 303.698 732.035 306.268 732.035Z" fill="#E8E8E8"/>
<path d="M351.708 843.015C357.739 838.478 364.19 836.177 370.886 836.177C382.27 836.177 390.255 842.764 390.588 843.045L390.918 843.321V918.469H351.34V843.291L351.708 843.015Z" fill="#E8E8E8"/>
<path d="M351.708 1004.63C357.739 1000.09 364.19 997.787 370.886 997.787C382.27 997.787 390.255 1004.37 390.588 1004.65L390.918 1004.93V1080.08H351.34V1004.9L351.708 1004.63Z" fill="#E8E8E8"/>
<path d="M121.951 924.751C129.471 919.506 137.515 916.848 145.861 916.848C160.053 916.848 170.004 924.457 170.421 924.78L170.777 925.056V1012.03H121.556V925.026L121.951 924.751Z" fill="#E8E8E8"/>
<path d="M121.555 649.381C121.567 635.849 132.795 624.841 146.235 624.841C159.682 624.841 170.621 635.859 170.621 649.402V711.045L121.554 711.247V649.381H121.555Z" fill="#E8E8E8"/>
<path d="M121.556 383.657C121.568 367.699 132.834 354.722 146.315 354.722C159.803 354.722 170.778 367.714 170.778 383.684V457.064L121.557 457.306V383.657H121.556Z" fill="#E8E8E8"/>
<path d="M591.847 815.597C581.347 807.696 570.118 803.69 558.477 803.69C558.248 803.69 558.024 803.7 557.797 803.702C557.57 803.7 557.346 803.69 557.117 803.69C545.475 803.69 534.247 807.696 523.747 815.597L523.38 815.873V947.27H557.793H557.803H592.216V815.873L591.847 815.597Z" fill="#E8E8E8"/>
<path d="M557.8 351.075C557.8 351.075 557.797 351.075 557.795 351.075H557.791C534.738 351.215 516.027 369.691 516.027 392.389V497.552H557.791H557.8H599.563V392.389C599.563 369.692 580.852 351.216 557.8 351.075Z" fill="#E8E8E8"/>
<path d="M295.322 1132.44H270.08V1147.64H295.322V1132.44Z" fill="#E8E8E8"/>
<path d="M298.405 1153.22H270.08V1173.96H298.405V1153.22Z" fill="#E8E8E8"/>
<path d="M287.62 804.218H270.171V1126.87H287.62V804.218Z" fill="#E8E8E8"/>
<path d="M296.232 766.645H270.031V770.489H296.232V766.645Z" fill="#E8E8E8"/>
<path d="M291.01 796.616H270.031V798.642H291.01V796.616Z" fill="#E8E8E8"/>
<path d="M287.815 776.064H270.031V791.04H287.815V776.064Z" fill="#E8E8E8"/>
<path d="M289.741 756.155H270.031V761.069H289.741V756.155Z" fill="#E8E8E8"/>
<path d="M287.562 572.911H271.118V692.292H287.562V572.911Z" fill="#E8E8E8"/>
<path d="M293.786 549.301H271.118V552.661H293.786V549.301Z" fill="#E8E8E8"/>
<path d="M287.709 558.237H271.118V567.301H287.709V558.237Z" fill="#E8E8E8"/>
<path d="M287.709 706.448H271.118V744.481H287.709V706.448Z" fill="#E8E8E8"/>
<path d="M287.889 494.186H271.102V543.725H287.889V494.186Z" fill="#E8E8E8"/>
<path d="M557.799 703.943H557.79H464.608V705.786H557.79H557.799H650.981V703.943H557.799Z" fill="#E8E8E8"/>
<path d="M445.26 703.965H292.431V705.806H445.26V703.965Z" fill="#E8E8E8"/>
<path d="M445.26 748.145H292.431V749.986H445.26V748.145Z" fill="#E8E8E8"/>
<path d="M557.593 748.166H464.608V750.009H557.593V748.166Z" fill="#E8E8E8"/>
<path d="M557.799 1042.93C557.799 1042.93 557.796 1042.93 557.795 1042.93H557.79C525.16 1042.49 516.112 1057.89 516.112 1057.89V1174H557.79H557.799H599.477V1057.89C599.477 1057.89 590.429 1042.49 557.799 1042.93Z" fill="#E8E8E8"/>
<path d="M557.8 653.273C557.8 653.273 557.797 653.273 557.795 653.273H557.791C538.583 653.442 523.001 671.782 523.001 694.308C523.001 697.627 523.348 700.851 523.986 703.943H557.791H557.8H591.604C592.243 700.851 592.589 697.627 592.589 694.308C592.589 671.782 577.007 653.442 557.8 653.273Z" fill="#E8E8E8"/>
<path d="M557.591 741.589C554.326 741.589 552.564 734.247 552.564 727.34C552.564 720.432 554.326 713.09 557.591 713.09C560.856 713.09 562.618 720.432 562.618 727.34C562.618 734.248 560.857 741.589 557.591 741.589Z" fill="#E8E8E8"/>
<path d="M1095.31 562.755H1091.65V156.789H1112.34V154.658H1091.4V152.816C1091.4 102.532 1041.34 60.327 977.43 56.732L967.964 56.2078L962.139 56.3875C896.806 58.4042 845.629 100.761 845.629 152.816V154.658H826.697V156.789H846.281V484.56H839.477L813.806 485.489L813.569 485.434C802.255 482.785 780.144 475.071 759.179 453.163C743.466 436.743 737.697 436.648 735.949 437.371C734.287 438.056 733.945 440.491 733.875 441.377C734.614 443.161 736.393 448.342 733.419 450.904C730.082 453.778 723.106 451.42 710.8 443.258C692.733 431.277 679.809 412.703 672.147 399.231C671.096 397.374 668.96 393.571 668.164 392.151L667.927 391.729V356.053H659.254V349.677H676.912V347.546H659.254V339.319H661.083C661.137 339.319 661.182 339.319 661.22 339.319C661.404 339.263 661.618 339.215 661.952 339.166C666.377 338.532 669.952 336.302 672.579 332.535C674.855 329.269 675.83 325.567 675.478 321.529C674.998 316.028 672.444 311.547 667.888 308.209C664.47 305.705 660.482 304.487 656.045 304.591C653.213 304.657 650.534 305.294 648.082 306.485C646.484 307.261 642.053 311.585 640.829 313.251L640.575 313.532C635.41 318.163 631.328 319.646 628.095 318.066C622.765 315.46 623.126 305.455 623.205 304.045L623.176 253.232H641.321V251.642H623.135L622.632 250.614C612.211 229.322 588.804 207.292 560.002 206.073L558.25 206V147.548L577.46 148.469V148.265L558.25 146.73V125.219H558.002V121.534H561.909V143.324L581.119 144.86V152.334L561.909 151.413V202.489C590.939 204.531 614.477 226.443 625.401 247.956H644.98V256.916H626.837L626.864 304.151L626.861 304.207C626.691 307.114 627.161 313.516 629.694 314.751C631.353 315.558 634.303 314.19 638.011 310.896C639.416 309.08 644.092 304.331 646.492 303.166C649.417 301.744 652.602 300.984 655.96 300.907C661.23 300.781 665.958 302.239 670.04 305.229C675.489 309.222 678.544 314.598 679.122 321.206C679.552 326.132 678.358 330.656 675.572 334.652C672.429 339.159 668.172 341.88 662.912 342.745V343.86H680.571V353.361H671.586V390.758C672.507 392.401 674.368 395.712 675.323 397.401C682.784 410.521 695.347 428.595 712.811 440.177C727.867 450.162 730.758 448.339 731.037 448.101C731.799 447.448 731.307 444.593 730.36 442.477L730.201 442.125L730.197 441.736C730.195 441.493 730.188 435.761 734.561 433.959C740.022 431.706 748.938 437.152 761.812 450.604C781.978 471.677 803.17 479.178 814.16 481.786L839.409 480.874L842.62 480.873V160.474H823.036V150.973H841.989C843.128 99.8099 891.521 58.0827 954.408 53.1223C946.182 47.9759 940.879 38.7775 940.879 28.7011C940.879 12.8674 953.668 -0.013483 969.389 -0.013483H969.549C969.624 -0.013483 969.699 -0.00979773 969.773 -0.00519116C985.281 0.203026 997.896 13.0802 997.896 28.7011C997.896 39.1497 992.36 48.4835 983.766 53.5167C1013.19 56.3101 1040.36 67.153 1060.8 84.3678C1082.36 102.519 1094.47 126.107 1095.04 150.974H1116V160.475H1095.3V562.755H1095.31ZM969.371 3.67177C955.688 3.67177 944.539 14.8998 944.539 28.7011C944.539 39.8315 951.959 49.7301 962.583 52.7741L968.92 54.59L975.334 53.0063C986.465 50.2571 994.239 40.2626 994.239 28.702C994.239 15.0868 983.242 3.86248 969.727 3.6819L969.559 3.67453C969.537 3.67453 969.515 3.67546 969.493 3.67546L969.371 3.67177ZM24.3539 562.755H20.6948V160.474H0V150.973H20.9637C21.5336 126.106 33.6387 102.518 55.1962 84.3668C75.644 67.1503 102.806 56.3073 132.232 53.5157C123.638 48.4826 118.102 39.1488 118.102 28.7002C118.102 13.0793 130.718 0.202104 146.226 -0.00519116C146.299 -0.010719 146.374 -0.0144043 146.449 -0.0144043H146.609C162.33 -0.0144043 175.119 12.8665 175.119 28.7002C175.119 38.7766 169.817 47.974 161.59 53.1214C224.477 58.0818 272.87 99.809 274.009 150.972H292.961V160.473H273.378V480.875H276.523L301.838 481.789C312.827 479.181 334.019 471.679 354.185 450.606C367.059 437.154 375.973 431.708 381.436 433.962C385.809 435.764 385.802 441.496 385.8 441.739L385.797 442.128L385.637 442.483C384.69 444.597 384.199 447.452 384.96 448.106C385.241 448.345 388.133 450.166 403.187 440.182C420.651 428.6 433.215 410.526 440.678 397.401C441.632 395.715 443.491 392.404 444.413 390.762V353.365H435.428V343.864H453.087V342.749C447.827 341.884 443.57 339.163 440.426 334.655C437.64 330.66 436.447 326.136 436.877 321.21C437.454 314.601 440.509 309.225 445.958 305.232C450.04 302.241 454.785 300.786 460.039 300.91C463.396 300.988 466.582 301.748 469.507 303.17C471.907 304.335 476.582 309.083 477.988 310.899C481.696 314.195 484.646 315.564 486.305 314.755C488.839 313.519 489.308 307.116 489.138 304.211L489.135 304.1L489.163 256.921H471.019V247.961H490.599C501.522 226.447 525.061 204.536 554.091 202.494V151.417L534.881 152.339V144.865L554.091 143.329V121.538H557.998V125.223H557.75V146.734L538.54 148.27V148.474L557.75 147.552V206.004L555.998 206.078C527.196 207.296 503.789 229.326 493.369 250.619L492.866 251.647H474.679V253.236H492.825L492.795 304.049C492.874 305.46 493.235 315.465 487.905 318.071C484.671 319.649 480.591 318.167 475.426 313.536L475.171 313.256C473.947 311.589 469.517 307.267 467.919 306.49C465.467 305.299 462.788 304.661 459.956 304.596C455.521 304.5 451.531 305.71 448.112 308.214C443.557 311.553 441.003 316.034 440.523 321.534C440.171 325.571 441.146 329.274 443.422 332.539C446.049 336.305 449.624 338.537 454.049 339.171C454.386 339.219 454.602 339.268 454.782 339.324C454.82 339.324 454.865 339.324 454.918 339.324H456.747V347.551H439.088V349.681H456.747V356.058H448.074V391.734L447.837 392.155C447.04 393.574 444.905 397.378 443.857 399.231C436.193 412.706 423.268 431.28 405.202 443.262C392.895 451.424 385.919 453.781 382.582 450.908C379.608 448.345 381.387 443.164 382.126 441.38C382.056 440.494 381.714 438.052 380.042 437.371C378.287 436.654 372.514 436.768 356.822 453.167C335.858 475.075 313.747 482.789 302.432 485.438L302.195 485.493L276.459 484.562L269.721 484.563V156.789H289.304V154.658H270.373V152.816C270.373 100.762 219.196 58.4051 153.863 56.3875L148.036 56.2078L138.569 56.732C74.6633 60.327 24.6027 102.532 24.6027 152.816V154.658H3.65907V156.789H24.3539V562.755ZM146.42 3.67269L146.286 3.68006C132.757 3.86156 121.76 15.085 121.76 28.7011C121.76 40.2626 129.534 50.2561 140.665 53.0053L147.079 54.5891L153.416 52.7732C164.04 49.7291 171.46 39.8306 171.46 28.7002C171.46 14.8998 160.312 3.67177 146.609 3.67177L146.441 3.67453L146.42 3.67269Z" fill="#E8E8E8"/>
<path d="M442.263 398.331L441.72 399.286C441.808 399.135 442.005 398.787 442.263 398.331Z" fill="#E8E8E8"/>
</g>
<g><path fill="#E8E8E8" fill-opacity="1" stroke="#E8E8E8" stroke-opacity="1" stroke-width="4" stroke-dasharray="none" stroke-linejoin="miter" stroke-linecap="butt" stroke-dashoffset="" fill-rule="nonzero" opacity="1" marker-start="" marker-mid="" marker-end="" d="M22.9205367142701,552.3178126672769 L22.9205367142701,1169.3870546464516 " id="svg_54" class="selected"/></g>
<defs>
<clipPath id="clip0">
<rect width="1116" height="1174" fill="white"/>
</clipPath>
</defs>
</svg>
