<svg width="360" height="234" viewBox="0 0 360 234" fill="none" xmlns="http://www.w3.org/2000/svg">
<path d="M43.3013 30.535H43.4179L43.3013 30.2681V30.535Z" fill="black"/>
<path d="M52.5057 219.287C48.9826 215.655 46.5687 211.049 45.264 205.48C43.9593 199.912 43.3013 191.275 43.3013 179.574V76.486H36.3152V179.578C36.3152 191.166 35.6572 199.773 34.3525 205.398C33.0477 211.026 30.6301 215.659 27.1107 219.291C23.9297 222.585 20.3201 224.972 16.2894 226.45C12.2549 227.924 6.99847 228.837 0.519989 229.176V233.094H79.0965V229.176C72.618 228.837 67.3615 227.928 63.3308 226.45C59.3001 224.972 55.6867 222.585 52.5057 219.287Z" fill="black"/>
<path d="M196.999 66.6837L148.295 182.646L86.6841 30.535L74.4942 0.440002H0.519989V4.35792C0.519989 4.35792 30.5774 0.688162 43.3013 30.2643L43.4178 30.5313L130.571 233.09H134.15L203.838 69.624L196.999 66.6837Z" fill="black"/>
<path d="M222.277 179.578C222.277 191.279 221.623 199.916 220.318 205.484C219.01 211.053 216.596 215.655 213.077 219.291C209.896 222.585 206.286 224.972 202.252 226.45C198.217 227.928 192.904 228.837 186.317 229.176V233.094H295.229V229.176C288.75 228.837 283.494 227.928 279.463 226.45C275.432 224.972 271.823 222.588 268.642 219.291C265.119 215.659 262.701 211.023 261.4 205.398C260.092 199.773 259.437 191.17 259.437 179.578V41.6646L222.281 41.597V179.578H222.277Z" fill="black"/>
<path d="M356.927 0.440002H126.318L123.25 63.3335L127.172 63.6757C129.898 50.0382 133.819 39.247 138.929 31.2908C144.498 22.6578 151.567 16.5779 160.151 13.0548C168.727 9.53544 181.767 7.31704 199.266 6.40712C207.448 5.95216 215.114 5.72656 222.273 5.72656H259.43H259.685H259.434C284.659 5.72656 302.553 7.25688 313.123 10.3288C325.621 13.8482 335.134 19.6799 341.669 27.8015C348.203 35.9269 353.005 47.8874 356.073 63.6794L359.991 63.3373L356.927 0.440002Z" fill="black"/>
</svg>
