<svg width="78" height="82" viewBox="0 0 78 82" fill="none" xmlns="http://www.w3.org/2000/svg">
<g clip-path="url(#clip0)" style="fill: black !important;">
<path style="fill: black; !important"  d="M55.0564 38.5502L48.9944 38.0023V34.3155L49.0886 34.4175C49.1003 34.4302 50.2659 35.683 51.013 35.6829C51.0567 35.6829 51.0985 35.6785 51.1373 35.6697C51.2319 35.6483 51.3236 35.6375 51.4096 35.6375C51.9716 35.6375 52.1661 36.0957 52.1965 36.1781C53.4549 37.5634 54.9901 37.6766 55.0054 37.6775L55.0564 37.6808V38.5502ZM49.1031 37.9022L54.9476 38.4305V37.7818C54.6654 37.7491 53.2688 37.5266 52.1086 36.2437L52.1004 36.2347L52.0968 36.223C52.0907 36.2037 51.9421 35.747 51.4095 35.747C51.3315 35.747 51.2479 35.757 51.161 35.7766C51.1144 35.7871 51.0647 35.7924 51.013 35.7924C50.3393 35.7925 49.4023 34.8956 49.1031 34.5906V37.9022H49.1031Z" fill="#E8E8E8"/>
<path style="fill: black; !important"  d="M55.0884 38.5854L48.9624 38.0318V34.2337L49.112 34.3957C49.1236 34.4083 50.2779 35.6509 51.013 35.6508C51.0543 35.6508 51.0937 35.6467 51.1302 35.6384C51.2271 35.6165 51.321 35.6054 51.4095 35.6054C51.9785 35.6054 52.1837 36.0549 52.2241 36.161C53.4733 37.5327 54.9921 37.6445 55.0073 37.6454L55.0883 37.6506L55.0884 38.5854ZM49.0263 37.9729L55.0244 38.515V37.7109L55.0034 37.7096C54.988 37.7086 53.4435 37.5985 52.1728 36.1997L52.1664 36.1892C52.1344 36.1024 51.9476 35.6697 51.4095 35.6697C51.3257 35.6697 51.2365 35.6802 51.1442 35.7011C51.103 35.7104 51.0589 35.7151 51.013 35.7151C50.2503 35.7152 49.0768 34.4522 49.0651 34.4394L49.0263 34.3973V37.9729H49.0263ZM54.9796 38.4656L49.0712 37.9316V34.5121L49.1259 34.5678C49.4002 34.8476 50.3471 35.7602 51.013 35.7601C51.0623 35.7601 51.1098 35.7551 51.1541 35.7451C51.2434 35.7249 51.3294 35.7147 51.4096 35.7147C51.9646 35.7147 52.121 36.1928 52.1274 36.2132L52.1323 36.2219C53.2877 37.4995 54.6833 37.7187 54.9513 37.7497L54.9797 37.7529V38.4656H54.9796ZM49.1351 37.8728L54.9157 38.3953V37.8102C54.585 37.7676 53.2197 37.52 52.085 36.2653L52.0699 36.244L52.0664 36.2323C52.0606 36.2141 51.9183 35.7791 51.4096 35.7791C51.3341 35.7791 51.2528 35.7888 51.1681 35.8079C51.1191 35.819 51.067 35.8245 51.0131 35.8245C50.3733 35.8246 49.5233 35.0562 49.1352 34.6683V37.8728H49.1351Z" fill="#E8E8E8"/>
<path style="fill: black; !important"  d="M55.0444 49.1701H54.8845V42.5194H54.7794L54.7749 42.4437C54.735 41.7654 54.1587 41.7716 54.1336 41.7727L54.0517 41.7747V41.6565H50.0468V41.7693L49.967 41.7694C49.9406 41.7695 49.3156 41.7808 49.3042 42.4403L49.3029 42.5194H49.1661V49.1702H49.0062V42.3585H49.1484C49.1986 41.7639 49.691 41.6407 49.887 41.6151V41.4957H54.2115V41.6175C54.4009 41.6407 54.8577 41.759 54.9279 42.3586H55.0444V49.1701H55.0444Z" fill="#E8E8E8"/>
<path style="fill: black; !important"  d="M55.0444 82H54.8845V55.5465H54.7793L54.7749 55.4708C54.7349 54.7924 54.1581 54.7978 54.1335 54.7998L54.0516 54.8018V54.6836H50.0467V54.7964L49.9669 54.7965C49.9405 54.7966 49.3155 54.8079 49.3041 55.4674L49.3028 55.5465H49.1659V82H49.0061V55.3856H49.1482C49.1985 54.791 49.6909 54.6678 49.8869 54.6422V54.5228H54.2115V54.6447C54.4008 54.6678 54.8576 54.7862 54.9279 55.3857H55.0444V82Z" fill="#E8E8E8"/>
<path style="fill: black; !important"  d="M70.3003 77.7397H65.1869V77.6132C64.9722 77.5889 64.3949 77.4635 64.3396 76.817H64.1771V57.4152H64.3396C64.3949 56.7687 64.9722 56.6433 65.1869 56.619V56.4925H70.3003V56.6205C70.6116 56.6485 71.0515 56.8398 71.1222 57.4152H71.2551V76.817H71.1222C71.0512 77.3953 70.6072 77.5855 70.3003 77.6121V77.7397ZM65.3468 77.5788H70.1404V77.4527L70.2222 77.4545C70.2222 77.4545 70.2222 77.4545 70.2223 77.4545C70.2963 77.4545 70.9252 77.4341 70.9696 76.7315L70.9744 76.6561H71.0953V57.576H70.9744L70.9696 57.5007C70.9252 56.7978 70.2961 56.7776 70.2245 56.7776H70.1446L70.1404 56.6534H65.3468V56.774L65.2669 56.7741C65.2361 56.7742 64.5085 56.7858 64.4953 57.4971L64.4939 57.576H64.3369V76.6561H64.4939L64.4953 76.7351C64.5085 77.4464 65.2361 77.4579 65.267 77.4581L65.3466 77.4585L65.3468 77.5788Z" fill="#E8E8E8"/>
<path style="fill: black; !important"  d="M64.1771 34.2117V18.1981H64.3391C64.3919 17.5046 64.9716 17.3704 65.1869 17.3445V17.093L65.3238 17.2329C65.9558 17.8789 66.8416 18.2494 67.754 18.2494C68.6665 18.2494 69.5224 17.8898 70.164 17.2368L70.3104 17.0877L70.3001 17.3072V17.346C70.6124 17.376 71.0539 17.5809 71.1227 18.198H71.255V34.211L64.1771 34.2117ZM64.337 18.359V34.0509L71.0953 34.0503V18.359H70.974L70.9696 18.2833C70.9249 17.5248 70.2961 17.5029 70.2245 17.5029H70.1445L70.1433 17.4798C69.4886 18.0813 68.6472 18.4103 67.7539 18.4103C66.8631 18.4103 65.9964 18.0727 65.3467 17.4782V17.4991L65.2668 17.4992C65.2361 17.4993 64.5086 17.512 64.4953 18.28L64.4939 18.359H64.337Z" fill="#E8E8E8"/>
<path style="fill: black; !important"  d="M70.3003 51.628H65.1869V51.5014C64.9722 51.4772 64.3949 51.3518 64.3396 50.7053H64.1771V42.2392H64.3396C64.3949 41.5927 64.9722 41.4673 65.1869 41.4431V41.3166H70.3003V41.4445C70.6115 41.4725 71.0515 41.6639 71.1222 42.2392H71.2551V50.7053H71.1222C71.0512 51.2836 70.6072 51.4738 70.3003 51.5004V51.628ZM65.3468 51.4671H70.1404V51.341L70.2222 51.3428C70.2222 51.3428 70.2222 51.3428 70.2223 51.3428C70.2964 51.3428 70.9252 51.3224 70.9696 50.6198L70.9744 50.5444H71.0953V42.4001H70.9744L70.9696 42.3247C70.9252 41.6219 70.2961 41.6016 70.2245 41.6016H70.1446L70.1404 41.4775H65.3468V41.5981L65.2669 41.5982C65.2361 41.5983 64.5085 41.6099 64.4953 42.3211L64.4939 42.4001H64.3369V50.5444H64.4939L64.4953 50.6234C64.5086 51.3375 65.2359 51.3464 65.2669 51.3464L65.3468 51.3464V51.4671Z" fill="#E8E8E8"/>
<path style="fill: black; !important"  d="M43.5459 49.1701H43.386V42.2651H43.3486V42.1847L43.2688 42.1895L43.2683 42.1808L43.3481 42.1756L43.2682 42.1788L43.3486 42.1732L43.2682 42.1787L43.2669 42.1609L43.3486 42.154L43.2669 42.1608C43.2121 41.4902 42.6453 41.4671 42.5809 41.4667L42.5814 41.3863L42.5809 41.4667L42.5814 41.3863L42.5796 41.4667V41.4665V41.4667L42.5796 41.3867L42.5792 41.4667V41.4662V41.4667V41.4666V41.4667L42.5763 41.3863H42.4954V41.3425H39V41.1817H42.5753V41.2621H42.6552V41.3105C42.8524 41.332 43.348 41.4513 43.4219 42.1043H43.4659V42.1847H43.5458V49.1701H43.5459ZM43.3486 42.1543L43.2669 42.1611L43.3486 42.1543Z" fill="#E8E8E8"/>
<path style="fill: black; !important"  d="M67.7514 14.5301C68.7173 14.5301 69.5002 13.7421 69.5002 12.77C69.5002 11.7979 68.7173 11.0099 67.7514 11.0099C66.7856 11.0099 66.0027 11.7979 66.0027 12.77C66.0027 13.7421 66.7856 14.5301 67.7514 14.5301Z" fill="#E8E8E8"/>
<path style="fill: black; !important"  d="M40.1558 51.1302C39.9761 51.1302 39.83 50.9831 39.83 50.8023C39.83 50.6214 39.9761 50.4743 40.1558 50.4743C40.3354 50.4743 40.4816 50.6214 40.4816 50.8023C40.4816 50.9831 40.3354 51.1302 40.1558 51.1302Z" fill="#E8E8E8"/>
<path style="fill: black; !important"  d="M41.2525 51.7975C41.0244 51.7975 40.9012 51.2847 40.9012 50.8023C40.9012 50.3198 41.0244 49.807 41.2525 49.807C41.4807 49.807 41.6038 50.3198 41.6038 50.8023C41.6038 51.2848 41.4807 51.7975 41.2525 51.7975Z" fill="#E8E8E8"/>
<path style="fill: black; !important"  d="M42.3389 51.1302C42.1592 51.1302 42.0131 50.9831 42.0131 50.8023C42.0131 50.6214 42.1592 50.4743 42.3389 50.4743C42.5186 50.4743 42.6647 50.6214 42.6647 50.8023C42.6646 50.9831 42.5185 51.1302 42.3389 51.1302Z" fill="#E8E8E8"/>
<path style="fill: black; !important"  d="M43.4429 51.7975C43.2147 51.7975 43.0916 51.2847 43.0916 50.8023C43.0916 50.3198 43.2147 49.807 43.4429 49.807C43.6711 49.807 43.7942 50.3198 43.7942 50.8023C43.7942 51.2848 43.6712 51.7975 43.4429 51.7975Z" fill="#E8E8E8"/>
<path style="fill: black; !important"  d="M44.5292 51.1364C44.3495 51.1364 44.2034 50.9893 44.2034 50.8085C44.2034 50.6276 44.3495 50.4805 44.5292 50.4805C44.7089 50.4805 44.855 50.6276 44.855 50.8085C44.8549 50.9893 44.7088 51.1364 44.5292 51.1364Z" fill="#E8E8E8"/>
<path style="fill: black; !important"  d="M47.8193 51.1302C47.6396 51.1302 47.4934 50.9831 47.4934 50.8023C47.4934 50.6214 47.6396 50.4743 47.8193 50.4743C47.9989 50.4743 48.1451 50.6214 48.1451 50.8023C48.145 50.9831 47.9989 51.1302 47.8193 51.1302Z" fill="#E8E8E8"/>
<path style="fill: black; !important"  d="M48.9161 51.7975C48.6879 51.7975 48.5648 51.2847 48.5648 50.8023C48.5648 50.3198 48.6879 49.807 48.9161 49.807C49.1443 49.807 49.2674 50.3198 49.2674 50.8023C49.2674 51.2848 49.1443 51.7975 48.9161 51.7975Z" fill="#E8E8E8"/>
<path style="fill: black; !important"  d="M50.0023 51.1302C49.8227 51.1302 49.6765 50.9831 49.6765 50.8023C49.6765 50.6214 49.8227 50.4743 50.0023 50.4743C50.1821 50.4743 50.3282 50.6214 50.3282 50.8023C50.3282 50.9831 50.1821 51.1302 50.0023 51.1302Z" fill="#E8E8E8"/>
<path style="fill: black; !important"  d="M51.1046 51.7975C50.8764 51.7975 50.7533 51.2847 50.7533 50.8023C50.7533 50.3198 50.8764 49.807 51.1046 49.807C51.3328 49.807 51.456 50.3198 51.456 50.8023C51.456 51.2848 51.3329 51.7975 51.1046 51.7975Z" fill="#E8E8E8"/>
<path style="fill: black; !important"  d="M52.2019 51.1302C52.0223 51.1302 51.8761 50.9831 51.8761 50.8023C51.8761 50.6215 52.0223 50.4743 52.2019 50.4743C52.3817 50.4743 52.5278 50.6215 52.5278 50.8023C52.5278 50.9831 52.3817 51.1302 52.2019 51.1302Z" fill="#E8E8E8"/>
<path style="fill: black; !important"  d="M53.3062 51.7975C53.078 51.7975 52.9548 51.2847 52.9548 50.8023C52.9548 50.3198 53.078 49.807 53.3062 49.807C53.5344 49.807 53.6575 50.3198 53.6575 50.8023C53.6575 51.2848 53.5344 51.7975 53.3062 51.7975Z" fill="#E8E8E8"/>
<path style="fill: black; !important"  d="M54.3923 51.1302C54.2127 51.1302 54.0665 50.9831 54.0665 50.8023C54.0665 50.6215 54.2127 50.4743 54.3923 50.4743C54.572 50.4743 54.7182 50.6215 54.7182 50.8023C54.7182 50.9831 54.572 51.1302 54.3923 51.1302Z" fill="#E8E8E8"/>
<path style="fill: black; !important"  d="M55.4892 51.7975C55.261 51.7975 55.1378 51.2847 55.1378 50.8023C55.1378 50.3198 55.261 49.807 55.4892 49.807C55.7174 49.807 55.8405 50.3198 55.8405 50.8023C55.8406 51.2848 55.7174 51.7975 55.4892 51.7975Z" fill="#E8E8E8"/>
<path style="fill: black; !important"  d="M56.5655 51.1302C56.3858 51.1302 56.2396 50.9831 56.2396 50.8023C56.2396 50.6214 56.3858 50.4743 56.5655 50.4743C56.7451 50.4743 56.8913 50.6214 56.8913 50.8023C56.8913 50.9831 56.7451 51.1302 56.5655 51.1302Z" fill="#E8E8E8"/>
<path style="fill: black; !important"  d="M53.3896 58.8818C52.9681 58.5649 52.5172 58.4042 52.0492 58.4042C51.2536 58.4042 50.6955 58.8642 50.6722 58.8839L50.6492 58.9032V64.152H53.4153V58.9011L53.3896 58.8818Z" fill="#E8E8E8"/>
<path style="fill: black; !important"  d="M53.3896 70.1697C52.9681 69.8528 52.5172 69.6921 52.0492 69.6921C51.2536 69.6921 50.6955 70.1521 50.6722 70.1718L50.6492 70.1911V75.44H53.4153V70.189L53.3896 70.1697Z" fill="#E8E8E8"/>
<path style="fill: black; !important"  d="M69.4479 64.5908C68.9223 64.2245 68.3602 64.0388 67.7768 64.0388C66.7849 64.0388 66.0894 64.5702 66.0603 64.5928L66.0354 64.6121V70.6868H69.4756V64.61L69.4479 64.5908Z" fill="#E8E8E8"/>
<path style="fill: black; !important"  d="M69.4756 45.3571C69.4748 44.4119 68.6901 43.6431 67.7507 43.6431C66.8109 43.6431 66.0463 44.4126 66.0463 45.3586V49.6641L69.4757 49.6783V45.3571H69.4756Z" fill="#E8E8E8"/>
<path style="fill: black; !important"  d="M69.4756 26.7972C69.4748 25.6826 68.6874 24.7761 67.7452 24.7761C66.8024 24.7761 66.0354 25.6836 66.0354 26.7991V31.9244L69.4756 31.9413V26.7972H69.4756Z" fill="#E8E8E8"/>
<path style="fill: black; !important"  d="M59.0949 79.0974H57.3307V80.1587H59.0949V79.0974Z" fill="#E8E8E8"/>
<path style="fill: black; !important"  d="M59.0949 80.5483H57.1152V81.9974H59.0949V80.5483Z" fill="#E8E8E8"/>
<path style="fill: black; !important"  d="M59.0885 56.172H57.8689V78.7078H59.0885V56.172Z" fill="#E8E8E8"/>
<path style="fill: black; !important"  d="M59.0983 53.5476H57.2671V53.8161H59.0983V53.5476Z" fill="#E8E8E8"/>
<path style="fill: black; !important"  d="M59.0984 55.641H57.6321V55.7825H59.0984V55.641Z" fill="#E8E8E8"/>
<path style="fill: black; !important"  d="M59.0983 54.2055H57.8553V55.2515H59.0983V54.2055Z" fill="#E8E8E8"/>
<path style="fill: black; !important"  d="M59.0984 52.8149H57.7208V53.1581H59.0984V52.8149Z" fill="#E8E8E8"/>
<path style="fill: black; !important"  d="M59.0224 40.0159H57.873V48.3543H59.0224V40.0159Z" fill="#E8E8E8"/>
<path style="fill: black; !important"  d="M59.0223 38.3669H57.438V38.6015H59.0223V38.3669Z" fill="#E8E8E8"/>
<path style="fill: black; !important"  d="M59.0224 38.991H57.8627V39.6241H59.0224V38.991Z" fill="#E8E8E8"/>
<path style="fill: black; !important"  d="M59.0224 49.3431H57.8627V51.9995H59.0224V49.3431Z" fill="#E8E8E8"/>
<path style="fill: black; !important"  d="M59.0235 34.5172H57.8502V37.9774H59.0235V34.5172Z" fill="#E8E8E8"/>
<path style="fill: black; !important"  d="M57.5326 49.1696H46.8511V49.2982H57.5326V49.1696Z" fill="#E8E8E8"/>
<path style="fill: black; !important"  d="M57.5326 52.2554H46.8511V52.384H57.5326V52.2554Z" fill="#E8E8E8"/>
<path style="fill: black; !important"  d="M22.9152 37.6808L22.9661 37.6775C22.9815 37.6766 24.5166 37.5634 25.7751 36.1781C25.8054 36.0957 25.9999 35.6375 26.5619 35.6375C26.6479 35.6375 26.7395 35.6484 26.8343 35.6697C26.873 35.6785 26.9148 35.6829 26.9585 35.6829C27.7057 35.683 28.8713 34.4302 28.8829 34.4175L28.9772 34.3155V38.0023L22.9152 38.5502V37.6808ZM28.8683 34.5905C28.5691 34.8956 27.6321 35.7925 26.9584 35.7924C26.9068 35.7924 26.857 35.787 26.8104 35.7765C26.7235 35.7569 26.6399 35.7469 26.5619 35.7469C26.0292 35.7469 25.8807 36.2036 25.8746 36.2229L25.871 36.2347L25.8628 36.2437C24.7027 37.5265 23.3061 37.7491 23.0239 37.7817V38.4304L28.8683 37.9022V34.5905H28.8683Z" fill="#E8E8E8"/>
<path style="fill: black; !important"  d="M22.8832 38.5854L22.8832 37.6506L22.9641 37.6454C22.9794 37.6445 24.4983 37.5327 25.7474 36.161C25.7878 36.055 25.993 35.6054 26.562 35.6054C26.6506 35.6054 26.7445 35.6165 26.8414 35.6384C26.8779 35.6467 26.9174 35.6508 26.9586 35.6508C27.6938 35.6509 28.848 34.4083 28.8595 34.3957L29.0092 34.2337V38.0318L22.8832 38.5854ZM22.9472 37.7109L22.9471 38.515L28.9451 37.9729V34.3974L28.9063 34.4395C28.8945 34.4522 27.7213 35.7152 26.9585 35.7152C26.9585 35.7152 26.9585 35.7152 26.9585 35.7152C26.9125 35.7152 26.8684 35.7105 26.8273 35.7012C26.735 35.6803 26.6458 35.6697 26.562 35.6697C26.0239 35.6697 25.8371 36.1025 25.8051 36.1893L25.7987 36.1998C24.528 37.5985 22.9835 37.7087 22.9681 37.7096L22.9472 37.7109ZM22.992 38.4656V37.753L23.0203 37.7497C23.2883 37.7188 24.684 37.4995 25.8393 36.222L25.8441 36.2135C25.8505 36.1929 26.007 35.7148 26.562 35.7148C26.6421 35.7148 26.7281 35.725 26.8175 35.7451C26.8618 35.7551 26.9093 35.7602 26.9585 35.7602C27.6245 35.7602 28.5713 34.8476 28.8457 34.5679L28.9004 34.5121V37.9316L22.992 38.4656ZM23.0559 37.8102V38.3953L28.8364 37.8728V34.6684C28.4483 35.0562 27.5984 35.8246 26.9585 35.8246C26.9046 35.8246 26.8524 35.819 26.8035 35.808C26.7187 35.7888 26.6375 35.7792 26.562 35.7792C26.0533 35.7792 25.911 36.2142 25.9051 36.2327L25.8947 36.2563L25.8865 36.2654C24.7519 37.52 23.3865 37.7676 23.0559 37.8102Z" fill="#E8E8E8"/>
<path style="fill: black; !important"  d="M28.9652 49.1701H28.8053V42.5194H28.6685L28.6672 42.4403C28.6558 41.7808 28.0308 41.7695 28.0042 41.7694L27.9248 41.7689L27.9246 41.6565H23.9197V41.7747L23.8378 41.7727C23.8136 41.7699 23.2361 41.7691 23.1964 42.4437L23.192 42.5194H23.0868V49.1702H22.927V42.3585H23.0435C23.1138 41.759 23.5706 41.6407 23.7599 41.6175V41.4956H28.0845V41.6151C28.2805 41.6406 28.7729 41.7639 28.8231 42.3585H28.9653V49.1701H28.9652Z" fill="#E8E8E8"/>
<path style="fill: black; !important"  d="M28.9653 82H28.8054V55.5465H28.6686L28.6672 55.4674C28.6559 54.8079 28.0309 54.7966 28.0043 54.7965L27.9248 54.796L27.9246 54.6836H23.9197V54.8018L23.8378 54.7998C23.8137 54.7974 23.2362 54.7963 23.1965 55.4708L23.192 55.5465H23.0868V82H22.927V55.3856H23.0435C23.1138 54.7862 23.5706 54.6678 23.7599 54.6446V54.5227H28.0845V54.6422C28.2805 54.6677 28.7729 54.7909 28.8231 55.3855H28.9653V82Z" fill="#E8E8E8"/>
<path style="fill: black; !important"  d="M12.7845 77.7397H7.67118V77.6117C7.35988 77.5837 6.91994 77.3924 6.84923 76.817H6.71631V57.4152H6.84923C6.92026 56.8369 7.36423 56.6465 7.67118 56.6201V56.4926H12.7845V56.6191C12.9993 56.6433 13.5766 56.7687 13.6319 57.4152H13.7943V76.8171H13.6319C13.5766 77.4635 12.9993 77.589 12.7845 77.6132V77.7397ZM7.83109 77.5788H12.6248V77.4581L12.7046 77.4581C12.7354 77.4579 13.463 77.4464 13.4761 76.7351L13.4776 76.6561H13.6346V57.576H13.4776L13.4761 57.4971C13.4629 56.783 12.7356 56.7741 12.7046 56.7741L12.6248 56.774V56.6534H7.83109V56.7795L7.74931 56.7776C7.67521 56.7776 7.04628 56.798 7.00191 57.5007L6.99711 57.576H6.87621V76.6561H6.99711L7.00191 76.7315C7.04628 77.4343 7.67547 77.4546 7.74708 77.4546H7.82699L7.83109 77.5788Z" fill="#E8E8E8"/>
<path style="fill: black; !important"  d="M13.7943 34.2117L6.71631 34.2112V18.1981H6.84865C6.91783 17.5778 7.36334 17.3739 7.67118 17.3456L7.6708 17.2974L7.66032 17.087L7.80743 17.2368C8.44896 17.8898 9.30486 18.2494 10.2175 18.2494C11.1298 18.2494 12.0157 17.8789 12.6477 17.2329L12.7845 17.093V17.3444C12.9999 17.3703 13.5795 17.5045 13.6323 18.1981H13.7943V34.2117ZM6.87621 34.0502L13.6346 34.0508V18.359H13.4775L13.4762 18.28C13.4629 17.5088 12.7356 17.4992 12.7047 17.4992L12.6248 17.4991V17.4782C11.9751 18.0727 11.1084 18.4103 10.2176 18.4103C9.32564 18.4103 8.4854 18.0823 7.83115 17.4825V17.505L7.74925 17.5029H7.74919C7.67521 17.5029 7.04666 17.525 7.00191 18.2833L6.9975 18.359H6.87628V34.0502H6.87621Z" fill="#E8E8E8"/>
<path style="fill: black; !important"  d="M12.7845 51.628H7.67118V51.4999C7.35988 51.4719 6.91994 51.2806 6.84923 50.7052H6.71631V42.2392H6.84923C6.92026 41.661 7.36423 41.4706 7.67118 41.4442V41.3167H12.7845V41.4431C12.9993 41.4674 13.5766 41.5928 13.6319 42.2393H13.7943V50.7054H13.6319C13.5766 51.3519 12.9993 51.4773 12.7845 51.5015V51.628ZM7.83109 51.4671H12.6248V51.3464L12.7046 51.3464C12.7354 51.3462 13.463 51.3347 13.4761 50.6234L13.4776 50.5444H13.6346V42.4001H13.4776L13.4761 42.3211C13.4629 41.607 12.7356 41.5982 12.7046 41.5982L12.6248 41.5981V41.4775H7.83109V41.6036L7.74931 41.6017C7.74931 41.6017 7.74931 41.6017 7.74925 41.6017C7.67515 41.6017 7.04628 41.6221 7.00191 42.3247L6.99711 42.4001H6.87621V50.5444H6.99711L7.00191 50.6198C7.04628 51.3226 7.67547 51.3429 7.74708 51.3429H7.82699L7.83109 51.4671Z" fill="#E8E8E8"/>
<path style="fill: black; !important"  d="M34.5854 49.1701H34.4255V42.1043H34.5495C34.6234 41.4514 35.1189 41.332 35.3162 41.3105V41.1817H38.9714V41.3425H35.476V41.3863H35.3961L35.3943 41.4667V41.4665V41.4667L35.3943 41.4608L35.3942 41.4667L35.3943 41.4604L35.3942 41.4667L35.3943 41.4604L35.3922 41.3863V41.4667V41.4658V41.4667L35.3919 41.3863L35.3919 41.4667V41.4665V41.4667L35.3901 41.3863L35.3906 41.4667C35.3259 41.4671 34.7577 41.4904 34.7044 42.1639H34.7043C34.7042 42.1652 34.7042 42.1664 34.7041 42.1677L34.7035 42.175C34.7034 42.1772 34.7032 42.1793 34.7029 42.1814L34.7031 42.1815L34.7029 42.1814C34.7028 42.1824 34.7026 42.1834 34.7024 42.1843L34.703 42.1844L34.7024 42.1843C34.7023 42.1852 34.7022 42.1859 34.702 42.1867L34.7028 42.1868L34.6982 42.2623L34.5854 42.2652V49.1701H34.5854Z" fill="#E8E8E8"/>
<path style="fill: black; !important"  d="M10.2201 14.5301C11.1859 14.5301 11.9688 13.7421 11.9688 12.77C11.9688 11.7979 11.1859 11.0099 10.2201 11.0099C9.25426 11.0099 8.47131 11.7979 8.47131 12.77C8.47131 13.7421 9.25426 14.5301 10.2201 14.5301Z" fill="#E8E8E8"/>
<path style="fill: black; !important"  d="M37.8157 51.1302C37.9953 51.1302 38.1415 50.9831 38.1415 50.8023C38.1415 50.6214 37.9953 50.4743 37.8157 50.4743C37.636 50.4743 37.4899 50.6214 37.4899 50.8023C37.4899 50.9831 37.6361 51.1302 37.8157 51.1302Z" fill="#E8E8E8"/>
<path style="fill: black; !important"  d="M36.7189 51.7975C36.9471 51.7975 37.0702 51.2847 37.0702 50.8023C37.0702 50.3198 36.9471 49.807 36.7189 49.807C36.4907 49.807 36.3676 50.3198 36.3676 50.8023C36.3676 51.2848 36.4906 51.7975 36.7189 51.7975Z" fill="#E8E8E8"/>
<path style="fill: black; !important"  d="M35.6326 51.1302C35.8123 51.1302 35.9585 50.9831 35.9585 50.8023C35.9585 50.6214 35.8123 50.4743 35.6326 50.4743C35.4529 50.4743 35.3068 50.6214 35.3068 50.8023C35.3068 50.9831 35.4529 51.1302 35.6326 51.1302Z" fill="#E8E8E8"/>
<path style="fill: black; !important"  d="M34.5286 51.7975C34.7568 51.7975 34.8799 51.2847 34.8799 50.8023C34.8799 50.3198 34.7568 49.807 34.5286 49.807C34.3004 49.807 34.1772 50.3198 34.1772 50.8023C34.1772 51.2848 34.3004 51.7975 34.5286 51.7975Z" fill="#E8E8E8"/>
<path style="fill: black; !important"  d="M33.4423 51.1364C33.622 51.1364 33.7681 50.9893 33.7681 50.8085C33.7681 50.6276 33.622 50.4805 33.4423 50.4805C33.2626 50.4805 33.1165 50.6276 33.1165 50.8085C33.1165 50.9893 33.2626 51.1364 33.4423 51.1364Z" fill="#E8E8E8"/>
<path style="fill: black; !important"  d="M30.1522 51.1302C30.332 51.1302 30.4781 50.9831 30.4781 50.8023C30.4781 50.6214 30.332 50.4743 30.1522 50.4743C29.9726 50.4743 29.8264 50.6214 29.8264 50.8023C29.8264 50.9831 29.9726 51.1302 30.1522 51.1302Z" fill="#E8E8E8"/>
<path style="fill: black; !important"  d="M29.0554 51.7975C29.2836 51.7975 29.4067 51.2847 29.4067 50.8023C29.4067 50.3198 29.2836 49.807 29.0554 49.807C28.8272 49.807 28.7041 50.3198 28.7041 50.8023C28.704 51.2848 28.8272 51.7975 29.0554 51.7975Z" fill="#E8E8E8"/>
<path style="fill: black; !important"  d="M27.9691 51.1302C28.1487 51.1302 28.2949 50.9831 28.2949 50.8023C28.2949 50.6214 28.1487 50.4743 27.9691 50.4743C27.7894 50.4743 27.6432 50.6214 27.6432 50.8023C27.6433 50.9831 27.7894 51.1302 27.9691 51.1302Z" fill="#E8E8E8"/>
<path style="fill: black; !important"  d="M26.8667 51.7975C27.0949 51.7975 27.218 51.2847 27.218 50.8023C27.218 50.3198 27.0949 49.807 26.8667 49.807C26.6385 49.807 26.5154 50.3198 26.5154 50.8023C26.5154 51.2848 26.6385 51.7975 26.8667 51.7975Z" fill="#E8E8E8"/>
<path style="fill: black; !important"  d="M25.7695 51.1302C25.9491 51.1302 26.0953 50.9831 26.0953 50.8023C26.0953 50.6215 25.9491 50.4743 25.7695 50.4743C25.5898 50.4743 25.4436 50.6215 25.4436 50.8023C25.4436 50.9831 25.5898 51.1302 25.7695 51.1302Z" fill="#E8E8E8"/>
<path style="fill: black; !important"  d="M24.6653 51.7975C24.8935 51.7975 25.0166 51.2847 25.0166 50.8023C25.0166 50.3198 24.8935 49.807 24.6653 49.807C24.4371 49.807 24.314 50.3198 24.314 50.8023C24.314 51.2848 24.4371 51.7975 24.6653 51.7975Z" fill="#E8E8E8"/>
<path style="fill: black; !important"  d="M23.5791 51.1302C23.7588 51.1302 23.9049 50.9831 23.9049 50.8023C23.9049 50.6215 23.7588 50.4743 23.5791 50.4743C23.3995 50.4743 23.2533 50.6215 23.2533 50.8023C23.2533 50.9831 23.3995 51.1302 23.5791 51.1302Z" fill="#E8E8E8"/>
<path style="fill: black; !important"  d="M22.4822 51.7975C22.7104 51.7975 22.8335 51.2847 22.8335 50.8023C22.8335 50.3198 22.7104 49.807 22.4822 49.807C22.254 49.807 22.1309 50.3198 22.1309 50.8023C22.1309 51.2848 22.254 51.7975 22.4822 51.7975Z" fill="#E8E8E8"/>
<path style="fill: black; !important"  d="M21.4059 51.1302C21.5856 51.1302 21.7317 50.9831 21.7317 50.8023C21.7317 50.6214 21.5856 50.4743 21.4059 50.4743C21.2262 50.4743 21.0801 50.6214 21.0801 50.8023C21.0801 50.9831 21.2262 51.1302 21.4059 51.1302Z" fill="#E8E8E8"/>
<path style="fill: black; !important"  d="M24.5817 58.8818C25.0033 58.5649 25.4542 58.4042 25.9222 58.4042C26.7178 58.4042 27.2759 58.8642 27.2992 58.8839L27.3222 58.9032V64.152H24.556V58.9011L24.5817 58.8818Z" fill="#E8E8E8"/>
<path style="fill: black; !important"  d="M24.5817 70.1697C25.0033 69.8528 25.4542 69.6921 25.9222 69.6921C26.7178 69.6921 27.2759 70.1521 27.2992 70.1718L27.3222 70.1911V75.44H24.556V70.189L24.5817 70.1697Z" fill="#E8E8E8"/>
<path style="fill: black; !important"  d="M8.52347 64.5908C9.04908 64.2245 9.61127 64.0388 10.1946 64.0388C11.1865 64.0388 11.8821 64.5702 11.9111 64.5928L11.936 64.6121V70.6868H8.49585V64.61L8.52347 64.5908Z" fill="#E8E8E8"/>
<path style="fill: black; !important"  d="M8.49579 45.3571C8.49662 44.4119 9.28137 43.6431 10.2207 43.6431C11.1606 43.6431 11.9252 44.4126 11.9252 45.3586V49.6641L8.49573 49.6783V45.3571H8.49579Z" fill="#E8E8E8"/>
<path style="fill: black; !important"  d="M8.49585 26.7972C8.49668 25.6826 9.28411 24.7761 10.2263 24.7761C11.1691 24.7761 11.9361 25.6836 11.9361 26.7991V31.9244L8.49591 31.9413V26.7972H8.49585Z" fill="#E8E8E8"/>
<path style="fill: black; !important"  d="M41.3657 56.9667C40.6318 56.4149 39.847 56.1351 39.0333 56.1351C39.0173 56.1351 39.0017 56.1357 38.9858 56.1359C38.97 56.1357 38.9543 56.1351 38.9383 56.1351C38.1246 56.1351 37.3399 56.4149 36.606 56.9667L36.5803 56.986V66.1637H38.9856H38.9862H41.3915V56.986L41.3657 56.9667Z" fill="#E8E8E8"/>
<path style="fill: black; !important"  d="M38.986 24.5214C38.986 24.5214 38.9858 24.5214 38.9857 24.5214H38.9854C37.3742 24.5312 36.0664 25.8217 36.0664 27.4071V34.7524H38.9854H38.986H41.905V27.4071C41.905 25.8218 40.5972 24.5313 38.986 24.5214Z" fill="#E8E8E8"/>
<path style="fill: black; !important"  d="M20.6408 79.0974H18.8766V80.1587H20.6408V79.0974Z" fill="#E8E8E8"/>
<path style="fill: black; !important"  d="M20.8563 80.5483H18.8766V81.9974H20.8563V80.5483Z" fill="#E8E8E8"/>
<path style="fill: black; !important"  d="M20.1025 56.172H18.8829V78.7078H20.1025V56.172Z" fill="#E8E8E8"/>
<path style="fill: black; !important"  d="M20.7044 53.5476H18.8732V53.8161H20.7044V53.5476Z" fill="#E8E8E8"/>
<path style="fill: black; !important"  d="M20.3395 55.641H18.8732V55.7825H20.3395V55.641Z" fill="#E8E8E8"/>
<path style="fill: black; !important"  d="M20.1161 54.2055H18.8732V55.2515H20.1161V54.2055Z" fill="#E8E8E8"/>
<path style="fill: black; !important"  d="M20.2507 52.8149H18.8732V53.1581H20.2507V52.8149Z" fill="#E8E8E8"/>
<path style="fill: black; !important"  d="M20.0984 40.0159H18.9491V48.3543H20.0984V40.0159Z" fill="#E8E8E8"/>
<path style="fill: black; !important"  d="M20.5334 38.3669H18.9491V38.6015H20.5334V38.3669Z" fill="#E8E8E8"/>
<path style="fill: black; !important"  d="M20.1087 38.991H18.9491V39.6241H20.1087V38.991Z" fill="#E8E8E8"/>
<path style="fill: black; !important"  d="M20.1087 49.3431H18.9491V51.9995H20.1087V49.3431Z" fill="#E8E8E8"/>
<path style="fill: black; !important"  d="M20.1213 34.5172H18.948V37.9774H20.1213V34.5172Z" fill="#E8E8E8"/>
<path style="fill: black; !important"  d="M38.986 49.1681H38.9854H32.4727V49.2968H38.9854H38.986H45.4987V49.1681H38.986Z" fill="#E8E8E8"/>
<path style="fill: black; !important"  d="M31.1203 49.1696H20.4387V49.2982H31.1203V49.1696Z" fill="#E8E8E8"/>
<path style="fill: black; !important"  d="M31.1203 52.2554H20.4387V52.384H31.1203V52.2554Z" fill="#E8E8E8"/>
<path style="fill: black; !important"  d="M45.4987 52.2569H38.9998V52.3856H45.4987V52.2569Z" fill="#E8E8E8"/>
<path style="fill: black; !important"  d="M38.9716 52.2569H32.4727V52.3856H38.9716V52.2569Z" fill="#E8E8E8"/>
<path style="fill: black; !important"  d="M38.986 72.8455C38.986 72.8455 38.9858 72.8455 38.9857 72.8455H38.9853C36.7048 72.8143 36.0724 73.8904 36.0724 73.8904V82H38.9853H38.986H41.8989V73.8904C41.8989 73.8904 41.2666 72.8143 38.986 72.8455Z" fill="#E8E8E8"/>
<path style="fill: black; !important"  d="M38.986 45.6289C38.986 45.6289 38.9858 45.6289 38.9857 45.6289H38.9854C37.6429 45.6408 36.5538 46.9217 36.5538 48.4951C36.5538 48.7269 36.5781 48.9521 36.6227 49.1681H38.9854H38.986H41.3487C41.3933 48.9521 41.4175 48.7269 41.4175 48.4951C41.4175 46.9217 40.3284 45.6408 38.986 45.6289Z" fill="#E8E8E8"/>
<path style="fill: black; !important"  d="M38.9714 51.7975C38.7433 51.7975 38.6201 51.2847 38.6201 50.8023C38.6201 50.3198 38.7433 49.807 38.9714 49.807C39.1996 49.807 39.3228 50.3198 39.3228 50.8023C39.3228 51.2848 39.1997 51.7975 38.9714 51.7975Z" fill="#E8E8E8"/>
<path style="fill: black; !important"  d="M39.0001 41.1817H38.9714V41.3426H39.0001V41.1817Z" fill="#E8E8E8"/>
<path style="fill: black; !important"  d="M76.5536 39.3066H76.2979V10.9512H77.7443V10.8024H76.2805V10.6737C76.2805 7.16155 72.7817 4.21364 68.315 3.96254L67.6534 3.92593L67.2463 3.93848C62.68 4.07934 59.1031 7.0378 59.1031 10.6737V10.8024H57.7799V10.9512H59.1487V33.8449H58.6731L56.8789 33.9098L56.8623 33.9059C56.0716 33.7209 54.5262 33.1821 53.0609 31.6519C51.9627 30.5051 51.5595 30.4984 51.4373 30.5489C51.3211 30.5968 51.2972 30.7669 51.2923 30.8287C51.344 30.9533 51.4684 31.3152 51.2604 31.4941C51.0273 31.6949 50.5397 31.5302 49.6796 30.9601C48.4169 30.1233 47.5135 28.8259 46.978 27.885C46.9046 27.7552 46.7553 27.4896 46.6996 27.3904L46.683 27.361V24.8691H46.0769V24.4237H47.3111V24.275H46.0769V23.7003H46.2048C46.2085 23.7003 46.2117 23.7003 46.2143 23.7003C46.2271 23.6964 46.2422 23.693 46.2655 23.6896C46.5747 23.6454 46.8246 23.4896 47.0082 23.2264C47.1673 22.9984 47.2355 22.7397 47.2108 22.4578C47.1773 22.0735 46.9988 21.7605 46.6804 21.5274C46.4414 21.3525 46.1627 21.2674 45.8526 21.2747C45.6547 21.2792 45.4674 21.3238 45.296 21.407C45.1843 21.4612 44.8747 21.7632 44.7892 21.8796L44.7714 21.8991C44.4104 22.2226 44.1251 22.3262 43.8991 22.2159C43.5266 22.0338 43.5518 21.335 43.5573 21.2365L43.5553 17.6874H44.8235V17.5764H43.5525L43.5173 17.5046C42.7889 16.0174 41.153 14.4787 39.14 14.3935L39.0175 14.3884V10.3057L40.3601 10.3701V10.3558L39.0175 10.2486V8.74612H39.0001V8.48871H39.2732V10.0107L40.6158 10.118V10.64L39.2732 10.5757V14.1432C41.3022 14.2858 42.9473 15.8163 43.7108 17.3189H45.0792V17.9447H43.8112L43.8131 21.2439L43.8129 21.2478C43.801 21.4509 43.8338 21.898 44.0109 21.9843C44.1269 22.0407 44.333 21.9451 44.5922 21.715C44.6904 21.5882 45.0172 21.2565 45.1849 21.1751C45.3894 21.0758 45.612 21.0227 45.8466 21.0173C46.215 21.0085 46.5455 21.1104 46.8307 21.3192C47.2116 21.5981 47.4251 21.9736 47.4655 22.4352C47.4955 22.7793 47.4121 23.0952 47.2174 23.3743C46.9977 23.6891 46.7002 23.8792 46.3326 23.9396V24.0175H47.5668V24.6811H46.9388V27.2931C47.0032 27.4079 47.1332 27.6392 47.2 27.7571C47.7215 28.6735 48.5995 29.936 49.8201 30.7449C50.8724 31.4423 51.0745 31.315 51.094 31.2984C51.1472 31.2528 51.1129 31.0533 51.0466 30.9055L51.0356 30.8809L51.0353 30.8538C51.0351 30.8368 51.0346 30.4365 51.3403 30.3106C51.722 30.1532 52.3451 30.5336 53.2449 31.4732C54.6544 32.9451 56.1355 33.469 56.9036 33.6512L58.6684 33.5875L58.8928 33.5874V11.2086H57.5241V10.545H58.8487C58.9283 6.97139 62.3106 4.05688 66.7059 3.71042C66.131 3.35096 65.7603 2.70848 65.7603 2.00467C65.7603 0.898744 66.6542 -0.000942729 67.753 -0.000942729H67.7642C67.7694 -0.000942729 67.7747 -0.000685327 67.7799 -0.000363573C68.8637 0.0141797 69.7454 0.913609 69.7454 2.00467C69.7454 2.73448 69.3585 3.38641 68.7578 3.73796C70.8145 3.93307 72.7131 4.69041 74.1421 5.89281C75.6488 7.16058 76.4949 8.80815 76.5347 10.545H77.9999V11.2086H76.5535V39.3066H76.5536ZM67.7517 0.25646C66.7954 0.25646 66.0162 1.0407 66.0162 2.00467C66.0162 2.7821 66.5348 3.47348 67.2773 3.68609L67.7202 3.81293L68.1685 3.70231C68.9465 3.51029 69.4898 2.81221 69.4898 2.00474C69.4898 1.05376 68.7212 0.269781 67.7766 0.257168L67.7649 0.256653C67.7634 0.256653 67.7618 0.256717 67.7603 0.256717L67.7517 0.25646ZM1.70215 39.3066H1.44641V11.2086H0V10.545H1.46521C1.50504 8.80809 2.3511 7.16051 3.8578 5.89274C5.28694 4.69022 7.18538 3.93288 9.24205 3.7379C8.64138 3.38635 8.25444 2.73441 8.25444 2.00461C8.25444 0.913545 9.13624 0.0141153 10.2201 -0.000363573C10.2252 -0.000749677 10.2304 -0.00100708 10.2357 -0.00100708H10.2469C11.3457 -0.00100708 12.2395 0.89868 12.2395 2.00461C12.2395 2.70841 11.869 3.35083 11.2939 3.71035C15.6892 4.05682 19.0715 6.97132 19.1512 10.5449H20.4757V11.2085H19.1071V33.5875H19.3269L21.0962 33.6514C21.8642 33.4692 23.3454 32.9452 24.7549 31.4734C25.6546 30.5338 26.2777 30.1534 26.6595 30.3108C26.9651 30.4367 26.9647 30.837 26.9646 30.854L26.9643 30.8812L26.9531 30.906C26.8869 31.0536 26.8526 31.253 26.9058 31.2987C26.9254 31.3154 27.1276 31.4426 28.1798 30.7452C29.4004 29.9363 30.2784 28.6738 30.8001 27.7572C30.8667 27.6394 30.9967 27.4081 31.0611 27.2934V24.6813H30.4332V24.0178H31.6674V23.9399C31.2998 23.8795 31.0022 23.6894 30.7825 23.3746C30.5878 23.0955 30.5043 22.7795 30.5344 22.4354C30.5747 21.9738 30.7883 21.5984 31.1691 21.3195C31.4544 21.1105 31.786 21.0089 32.1533 21.0176C32.3879 21.023 32.6106 21.0761 32.815 21.1754C32.9827 21.2568 33.3095 21.5884 33.4078 21.7153C33.667 21.9455 33.8731 22.0411 33.9891 21.9846C34.1662 21.8982 34.199 21.4511 34.1871 21.2481L34.1869 21.2404L34.1888 17.945H32.9207V17.3192H34.2892C35.0526 15.8166 36.6978 14.2861 38.7268 14.1435V10.576L37.3842 10.6403V10.1183L38.7268 10.0111V8.48903H38.9999V8.74644H38.9825V10.2489L37.6399 10.3562V10.3704L38.9825 10.306V14.3887L38.86 14.3939C36.847 14.4789 35.2111 16.0177 34.4828 17.5049L34.4476 17.5767H33.1765V17.6877H34.4447L34.4427 21.2368C34.4482 21.3354 34.4734 22.0342 34.1009 22.2162C33.8749 22.3264 33.5897 22.2229 33.2287 21.8995L33.2109 21.8799C33.1254 21.7635 32.8157 21.4616 32.704 21.4073C32.5326 21.3241 32.3454 21.2796 32.1475 21.275C31.8375 21.2683 31.5586 21.3528 31.3196 21.5277C31.0013 21.7609 30.8228 22.0739 30.7892 22.4581C30.7646 22.7401 30.8328 22.9987 30.9918 23.2268C31.1755 23.4898 31.4253 23.6457 31.7346 23.69C31.7582 23.6933 31.7733 23.6967 31.7859 23.7006C31.7885 23.7006 31.7916 23.7006 31.7953 23.7006H31.9232V24.2753H30.689V24.4241H31.9232V24.8694H31.317V27.3613L31.3005 27.3908C31.2448 27.4899 31.0955 27.7555 31.0223 27.885C30.4866 28.8262 29.5832 30.1235 28.3206 30.9604C27.4604 31.5304 26.9729 31.6951 26.7396 31.4944C26.5317 31.3154 26.6561 30.9535 26.7077 30.829C26.7029 30.767 26.679 30.5965 26.5621 30.5489C26.4394 30.4988 26.036 30.5068 24.9391 31.6522C23.4739 33.1824 21.9286 33.7212 21.1377 33.9062L21.1212 33.9101L19.3224 33.8451L18.8515 33.8451V10.9512H20.2202V10.8024H18.8971V10.6737C18.8971 7.03786 15.3201 4.0794 10.7539 3.93848L10.3466 3.92593L9.68493 3.96254C5.2184 4.21364 1.71954 7.16155 1.71954 10.6737V10.8024H0.255741V10.9512H1.70215V39.3066ZM10.2337 0.256524L10.2243 0.257039C9.27868 0.269716 8.51012 1.05364 8.51012 2.00467C8.51012 2.81221 9.05344 3.51022 9.83141 3.70225L10.2797 3.81286L10.7226 3.68603C11.4651 3.47341 11.9838 2.78203 11.9838 2.00461C11.9838 1.0407 11.2046 0.25646 10.2469 0.25646L10.2352 0.256653L10.2337 0.256524Z" fill="#E8E8E8"/>
<path style="fill: black; !important"  d="M47.089 27.8221C47.107 27.854 47.1208 27.8783 47.127 27.8888L47.089 27.8221Z" fill="#E8E8E8"/>
<path style="fill: black; !important"  d="M30.9109 27.8221L30.8729 27.8888C30.8791 27.8783 30.8929 27.854 30.9109 27.8221Z" fill="#E8E8E8"/>
</g>
<defs>
<clipPath id="clip0">
<rect width="78" height="82" fill="white"/>
</clipPath>
</defs>
</svg>
